<svg xmlns="http://www.w3.org/2000/svg" xmlns:xlink="http://www.w3.org/1999/xlink" aria-hidden="true" role="img" class="iconify iconify--logos" width="31.88" height="32" preserveAspectRatio="xMidYMid meet" viewBox="0 0 256 257"><defs><linearGradient id="IconifyId1813088fe1fbc01fb466" x1="-.828%" x2="57.636%" y1="7.652%" y2="78.411%"><stop offset="0%" stop-color="#41D1FF"></stop><stop offset="100%" stop-color="#BD34FE"></stop></linearGradient><linearGradient id="IconifyId1813088fe1fbc01fb467" x1="43.376%" x2="50.316%" y1="2.242%" y2="89.03%"><stop offset="0%" stop-color="#FFEA83"></stop><stop offset="8.333%" stop-color="#FFDD35"></stop><stop offset="100%" stop-color="#FFA800"></stop></linearGradient></defs><path fill="url(#IconifyId1813088fe1fbc01fb466)" d="M255.153 37.343a30.393 30.393 0 0 1-21.511 21.511L165.533 126.96l-42.33 73.32l-46.302-80.201l-73.32-42.331L.847 37.343A30.393 30.393 0 0 1 22.358 15.832L88.467 78.04l73.32-42.331l46.302 80.201l42.33-73.32l21.511-21.511a30.393 30.393 0 0 1 .223 16.264Z"></path><path fill="url(#IconifyId1813088fe1fbc01fb467)" d="M186.583.847a30.393 30.393 0 0 1 21.51 21.511L140.005 89.98l-42.33 73.32l-46.303-80.2l-73.32-42.331L.847 37.343A30.393 30.393 0 0 1 22.358 15.832L88.467 78.04l73.32-42.33l23.15-40.098a30.393 30.393 0 0 1 1.646-4.768Z"></path></svg>
