<svg xmlns="http://www.w3.org/2000/svg" xmlns:xlink="http://www.w3.org/1999/xlink" aria-hidden="true" role="img" class="iconify iconify--logos" width="102.4" height="122.88" preserveAspectRatio="xMidYMid meet" viewBox="0 0 256 307.2"><path fill="#FF3E00" d="M128 307.2c-3.328 0-6.528-.96-9.408-2.816l-112-70.4a12.8 12.8 0 0 1-6.528-11.2V84.48a12.8 12.8 0 0 1 6.528-11.2l112-70.4a12.8 12.8 0 0 1 18.816 0l112 70.4a12.8 12.8 0 0 1 6.528 11.2v138.24a12.8 12.8 0 0 1-6.528 11.2l-112 70.4c-2.88 1.856-6.08 2.816-9.408 2.816zM25.6 90.048v127.104l102.4 64.352l102.4-64.352V90.048L128 25.6L25.6 90.048z"></path><path fill="#FF3E00" d="M128 156.096c-3.328 0-6.528-.96-9.408-2.816L6.592 98.88a12.8 12.8 0 1 1 12.928-20.48l108.48 68.352l108.48-68.352a12.8 12.8 0 1 1 12.928 20.48l-112 70.4c-2.88 1.792-6.08 2.752-9.408 2.752zm0-102.4c-3.328 0-6.528-.96-9.408-2.816L6.592-13.504a12.8 12.8 0 1 1 12.928-20.48L128 34.368l108.48-68.352a12.8 12.8 0 1 1 12.928 20.48l-112 70.4c-2.88 1.856-6.08 2.816-9.408 2.816zm0 204.8c-3.328 0-6.528-.96-9.408-2.816l-112-70.4a12.8 12.8 0 1 1 12.928-20.48L128 230.848l108.48-68.352a12.8 12.8 0 1 1 12.928 20.48l-112 70.4c-2.88 1.856-6.08 2.816-9.408 2.816z"></path></svg>
